# xmcd CD database file
#
# Track frame offsets:
#	150
#	11129
#	26331
#	46837
#	65882
#	84753
#	105987
#	132094
#	143531
#	160377
#	176826
#	192201
#	211022
#
# Disc length: 3280 seconds
#
# Revision: 1
# Processed by: cddbd v1.5.2PL0 Copyright (c) Steve Scherf et al.
# Submitted via: CDex 1.51
#
DISCID=a20cce0d
DTITLE=Juan Bourbon, Juan Scotch and Juan Beer - Juan Bourbon, Juan Scotch and Juan Beer
DYEAR=2006
DGENRE=Blues
TTITLE0=Temperature
TTITLE1=Crazy mixed up world
TTITLE2=Everyday I have the Blues
TTITLE3=Hard hearted woman
TTITLE4=Hoochie coochie latin man
TTITLE5=Caledonia
TTITLE6=Blue and londsome
TTITLE7=Mu baby dont love me no more
TTITLE8=my baby is sweeter
TTITLE9=Mean old frisco
TTITLE10=hard hearted woman
TTITLE11=Twelve gates to the city
TTITLE12=Thats alright
EXTD=YEAR: 2006
EXTT0=
EXTT1=
EXTT2=
EXTT3=
EXTT4=
EXTT5=
EXTT6=
EXTT7=
EXTT8=
EXTT9=
EXTT10=
EXTT11=
EXTT12=
PLAYORDER=
